<svg xmlns="http://www.w3.org/2000/svg" xmlns:xlink="http://www.w3.org/1999/xlink" version="1.1" x="0px" y="0px" viewBox="0 0 100 100" style="enable-background:new 0 0 100 100;" xml:space="preserve"><g><path d="M46.016,31.126h-6.827V6.978c0-2.918-2.135-5.292-4.76-5.292h-0.804C33.092,0.683,32.037,0,30.822,0H17.566   c-1.215,0-2.271,0.683-2.804,1.686H14.09c-2.625,0-4.759,2.374-4.759,5.292v24.148H3.272C1.465,31.126,0,32.591,0,34.397v56.172   c0,1.807,1.465,3.271,3.272,3.271h1.725v3.25c0,1.607,1.303,2.91,2.911,2.91s2.911-1.303,2.911-2.91v-3.25h26.456v3.25   c0,1.607,1.303,2.91,2.911,2.91s2.911-1.303,2.911-2.91v-3.25h2.921c1.807,0,3.272-1.464,3.272-3.271V34.397   C49.288,32.591,47.823,31.126,46.016,31.126z M12.305,6.978c0-1.257,0.817-2.318,1.785-2.318h0.673   c0.533,1.003,1.588,1.686,2.804,1.686h13.255c1.215,0,2.271-0.683,2.804-1.686h0.804c0.968,0,1.785,1.061,1.785,2.318v24.148   h-23.91V6.978z M7.49,41.654c0-2.188,1.78-3.968,3.968-3.968h25.515c2.188,0,3.968,1.78,3.968,3.968v11.244H7.49V41.654z    M44.855,83.578c0,2.539-2.066,4.604-4.605,4.604H9.039c-2.54,0-4.605-2.065-4.605-4.604V60.642c0-2.539,2.066-4.604,4.605-4.604   H40.25c2.54,0,4.605,2.065,4.605,4.604V83.578z M41.88,60.642v22.937c0,0.898-0.731,1.631-1.631,1.631H9.039   c-0.899,0-1.631-0.732-1.631-1.631V60.642c0-0.899,0.732-1.631,1.631-1.631H40.25C41.149,59.011,41.88,59.742,41.88,60.642z    M37.966,41.654v8.271H10.464v-8.271c0-0.548,0.446-0.993,0.994-0.993h25.515C37.521,40.661,37.966,41.106,37.966,41.654z    M92.89,60.642v22.937c0,0.898-0.731,1.631-1.631,1.631H64.51c-0.898,0-1.631-0.732-1.631-1.631V60.642   c0-0.899,0.732-1.631,1.631-1.631h26.749C92.158,59.011,92.89,59.742,92.89,60.642z M96.729,51.058h-4.404V26.909   c0-2.918-2.136-5.292-4.76-5.292H86.76c-0.533-1.003-1.588-1.686-2.804-1.686H70.701c-1.216,0-2.271,0.683-2.805,1.686h-0.672   c-2.625,0-4.76,2.374-4.76,5.292v24.148h-3.721c-1.809,0-3.273,1.465-3.273,3.271v36.241c0,1.807,1.465,3.271,3.273,3.271h1.724   v3.25c0,1.607,1.304,2.91,2.911,2.91s2.91-1.303,2.91-2.91v-3.25h21.696v3.25c0,1.607,1.304,2.91,2.911,2.91s2.91-1.303,2.91-2.91   v-3.25h2.922c1.807,0,3.271-1.464,3.271-3.271V54.328C100,52.522,98.535,51.058,96.729,51.058z M65.439,26.909   c0-1.257,0.817-2.318,1.785-2.318h0.672c0.533,1.003,1.589,1.686,2.805,1.686h13.255c1.216,0,2.271-0.683,2.804-1.686h0.805   c0.967,0,1.785,1.061,1.785,2.318v24.148h-23.91V26.909z M95.864,83.578c0,2.539-2.065,4.604-4.605,4.604H64.51   c-2.539,0-4.605-2.065-4.605-4.604V60.642c0-2.539,2.066-4.604,4.605-4.604h26.749c2.54,0,4.605,2.065,4.605,4.604V83.578z"></path></g></svg>