<svg xmlns="http://www.w3.org/2000/svg" viewBox="0 0 66 56" x="0px" y="0px"><path d="M659,218 C659,218.552285 658.552285,219 658,219 C657.447715,219 657,218.552285 657,218 L657,188.000795 C657,183.027139 661.028425,179 666.008515,179 L713.991485,179 C718.968863,179 723,183.024772 723,188.000795 L723,218 C723,218.552285 722.552285,219 722,219 C721.447715,219 721,218.552285 721,218 L721,188.000795 C721,184.130049 717.865001,181 713.991485,181 L666.008515,181 C662.132852,181 659,184.131852 659,188.000795 L659,218 Z M691,200.414214 L691,234 C691,234.552285 690.552285,235 690,235 C689.447715,235 689,234.552285 689,234 L689,200.414214 L685.707107,203.707107 C685.316582,204.097631 684.683418,204.097631 684.292893,203.707107 C683.902369,203.316582 683.902369,202.683418 684.292893,202.292893 L689.292893,197.292893 C689.683418,196.902369 690.316582,196.902369 690.707107,197.292893 L695.707107,202.292893 C696.097631,202.683418 696.097631,203.316582 695.707107,203.707107 C695.316582,204.097631 694.683418,204.097631 694.292893,203.707107 L691,200.414214 Z M707,200.414214 L703.707107,203.707107 C703.316582,204.097631 702.683418,204.097631 702.292893,203.707107 C701.902369,203.316582 701.902369,202.683418 702.292893,202.292893 L707.292893,197.292893 C707.683418,196.902369 708.316582,196.902369 708.707107,197.292893 L713.707107,202.292893 C714.097631,202.683418 714.097631,203.316582 713.707107,203.707107 C713.316582,204.097631 712.683418,204.097631 712.292893,203.707107 L709,200.414214 L709,224.004519 C709,226.764349 711.235963,229 713.998185,229 L722,229 C722.552285,229 723,229.447715 723,230 C723,230.552285 722.552285,231 722,231 L713.998185,231 C710.131456,231 707,227.868981 707,224.004519 L707,200.414214 Z M671,200.414214 L667.707107,203.707107 C667.316582,204.097631 666.683418,204.097631 666.292893,203.707107 C665.902369,203.316582 665.902369,202.683418 666.292893,202.292893 L671.292893,197.292893 C671.683418,196.902369 672.316582,196.902369 672.707107,197.292893 L677.707107,202.292893 C678.097631,202.683418 678.097631,203.316582 677.707107,203.707107 C677.316582,204.097631 676.683418,204.097631 676.292893,203.707107 L673,200.414214 L673,224.004519 C673,227.868981 669.868544,231 666.001815,231 L658,231 C657.447715,231 657,230.552285 657,230 C657,229.447715 657.447715,229 658,229 L666.001815,229 C668.764037,229 671,226.764349 671,224.004519 L671,200.414214 Z" transform="translate(-657 -179)"></path></svg>