<svg xmlns="http://www.w3.org/2000/svg" xmlns:xlink="http://www.w3.org/1999/xlink" version="1.1" x="0px" y="0px" viewBox="0 0 100 100" enable-background="new 0 0 100 100" xml:space="preserve"><g><g><path d="M77.041,49.998c0-4.067,4.961-9.096,3.494-12.633c-1.521-3.666-8.642-3.693-11.405-6.457    c-2.764-2.762-2.793-9.882-6.459-11.402c-3.538-1.467-8.565,3.495-12.633,3.495s-9.095-4.962-12.632-3.496    c-3.666,1.521-3.695,8.64-6.458,11.403c-2.764,2.763-9.882,2.792-11.402,6.458c-1.467,3.537,3.495,8.564,3.495,12.632    s-4.962,9.095-3.496,12.632c1.52,3.668,8.64,3.698,11.402,6.462s2.791,9.884,6.458,11.404c3.537,1.467,8.564-3.495,12.633-3.495    c4.067,0,9.096,4.962,12.634,3.494c3.667-1.521,3.696-8.64,6.46-11.403s9.883-2.793,11.404-6.46    C82.003,59.095,77.041,54.066,77.041,49.998z M60.242,55.28c0,4.62-3.035,7.5-7.591,8.227v3.618h-6.053l0.003-3.826    c-3.609-0.592-6.527-2.865-6.527-2.865l3.375-4.459c0,0,3.105,2.446,6.94,2.446c2.443,0,3.917-0.973,3.917-2.563v-0.079    c0-1.512-0.932-2.285-5.467-3.451c-5.47-1.395-9-2.906-9-8.297v-0.076c0-4.069,2.701-6.993,6.762-7.893V32.88l6.05-0.006v3.237    c3.185,0.316,5.303,2.062,5.303,2.062l-2.988,4.693c0,0-2.373-1.825-5.701-1.825c-2.288,0-3.492,1.046-3.492,2.367v0.079    c0,1.784,1.166,2.364,5.856,3.565c5.508,1.438,8.613,3.41,8.613,8.145V55.28z"></path></g></g></svg>